<?xml version="1.0"?><svg xmlns="http://www.w3.org/2000/svg"  viewBox="0 0 64 64" width="64px" height="64px">    <path d="M 38.945312 3.0019531 C 38.850687 3.0072031 38.756516 3.0265937 38.666016 3.0585938 L 7.6660156 14.058594 C 7.2670156 14.199594 7 14.576 7 15 L 7 48.982422 C 6.997 49.148422 7.035375 49.309172 7.109375 49.451172 L 7.109375 49.453125 C 7.109375 49.453125 7.1113281 49.455078 7.1113281 49.455078 C 7.1113281 49.455078 7.1113281 49.457031 7.1113281 49.457031 C 7.1173281 49.472031 7.1267656 49.486953 7.1347656 49.501953 L 7.1367188 49.503906 C 7.1367188 49.503906 7.1386719 49.505859 7.1386719 49.505859 L 7.1386719 49.507812 C 7.1386719 49.507812 7.140625 49.509766 7.140625 49.509766 C 7.249625 49.693766 7.4169531 49.843734 7.6269531 49.927734 C 7.6409531 49.933734 7.6549219 49.937359 7.6699219 49.943359 L 38.666016 60.941406 C 38.773016 60.979406 38.887 61 39 61 C 39.077 61 39.152516 60.991609 39.228516 60.974609 L 56.228516 56.974609 C 56.680516 56.867609 57 56.464 57 56 L 57 8 C 57 7.536 56.680516 7.1333438 56.228516 7.0273438 L 39.228516 3.0273438 C 39.134516 3.0053437 39.039938 2.9967031 38.945312 3.0019531 z M 39.058594 5.0410156 L 55 8.7929688 L 55 55.207031 L 39.058594 58.958984 L 17.164062 51.189453 L 38.871094 53.992188 C 39.155094 54.023187 39.443156 53.940953 39.660156 53.751953 C 39.876156 53.562953 40 53.287 40 53 L 40 13 C 40 12.7 39.865766 12.416562 39.634766 12.226562 C 39.404766 12.037563 39.100687 11.962531 38.804688 12.019531 L 18.804688 16.019531 C 18.337688 16.112531 18 16.523 18 17 L 18 44.300781 L 9 47.572266 L 9 15.705078 L 39.058594 5.0410156 z M 50 11 C 49.447 11 49 11.448 49 12 C 49 12.552 49.447 13 50 13 L 52 13 C 52.553 13 53 12.552 53 12 C 53 11.448 52.553 11 52 11 L 50 11 z M 38 14.220703 L 38 51.861328 L 12.205078 48.533203 L 19.341797 45.939453 C 19.736797 45.796453 20 45.421 20 45 L 20 17.820312 L 38 14.220703 z M 50 16 C 49.447 16 49 16.448 49 17 C 49 17.552 49.447 18 50 18 L 52 18 C 52.553 18 53 17.552 53 17 C 53 16.448 52.553 16 52 16 L 50 16 z M 50 21 C 49.447 21 49 21.448 49 22 C 49 22.552 49.447 23 50 23 L 52 23 C 52.553 23 53 22.552 53 22 C 53 21.448 52.553 21 52 21 L 50 21 z M 50 26 C 49.447 26 49 26.448 49 27 C 49 27.552 49.447 28 50 28 L 52 28 C 52.553 28 53 27.552 53 27 C 53 26.448 52.553 26 52 26 L 50 26 z M 50 31 C 49.447 31 49 31.448 49 32 C 49 32.552 49.447 33 50 33 L 52 33 C 52.553 33 53 32.552 53 32 C 53 31.448 52.553 31 52 31 L 50 31 z M 50 36 C 49.447 36 49 36.448 49 37 C 49 37.552 49.447 38 50 38 L 52 38 C 52.553 38 53 37.552 53 37 C 53 36.448 52.553 36 52 36 L 50 36 z M 50 41 C 49.447 41 49 41.448 49 42 C 49 42.552 49.447 43 50 43 L 52 43 C 52.553 43 53 42.552 53 42 C 53 41.448 52.553 41 52 41 L 50 41 z M 50 46 C 49.447 46 49 46.448 49 47 C 49 47.552 49.447 48 50 48 L 52 48 C 52.553 48 53 47.552 53 47 C 53 46.448 52.553 46 52 46 L 50 46 z M 50 51 C 49.447 51 49 51.448 49 52 C 49 52.552 49.447 53 50 53 L 52 53 C 52.553 53 53 52.552 53 52 C 53 51.448 52.553 51 52 51 L 50 51 z"/></svg>